<?xml version="1.0" encoding="UTF-8" standalone="no"?>
<!-- Created with Inkscape (http://www.inkscape.org/) -->

<svg
   xmlns:dc="http://purl.org/dc/elements/1.1/"
   xmlns:cc="http://creativecommons.org/ns#"
   xmlns:rdf="http://www.w3.org/1999/02/22-rdf-syntax-ns#"
   xmlns:svg="http://www.w3.org/2000/svg"
   xmlns="http://www.w3.org/2000/svg"
   xmlns:xlink="http://www.w3.org/1999/xlink"
   xmlns:sodipodi="http://sodipodi.sourceforge.net/DTD/sodipodi-0.dtd"
   xmlns:inkscape="http://www.inkscape.org/namespaces/inkscape"
   width="323mm"
   height="197mm"
   viewBox="0 0 323 197"
   version="1.1"
   id="svg4086"
   inkscape:version="0.92.4 (5da689c313, 2019-01-14)"
   sodipodi:docname="logo Tyro fond blanc.svg">
  <defs
     id="defs4080">
    <clipPath
       clipPathUnits="userSpaceOnUse"
       id="clipPath4060">
      <path
         style="fill:#214092;stroke-width:0.26458332"
         d="m 96.012582,246.91623 c -0.873122,-0.0966 -1.408901,-0.20632 -1.190622,-0.24384 0.218281,-0.0375 -0.555628,-0.23818 -1.719789,-0.4459 -2.910909,-0.5194 -7.02097,-1.82297 -9.25144,-2.93423 -4.1017,-2.04355 -7.8823,-5.73492 -9.635201,-9.4078 -0.886429,-1.85734 -2.14562,-5.97704 -2.151788,-7.04001 -0.003,-0.47388 -0.0747,-0.58658 -0.22411,-0.351 -0.325781,0.51372 -0.57241,-3.45715 -0.382161,-6.15302 0.0974,-1.38036 0.249851,-2.15796 0.38214,-1.94936 0.14596,0.23016 0.223369,0.0797 0.22986,-0.44671 0.0294,-2.38478 2.55539,-10.73878 4.505211,-14.8996 4.406958,-9.4042 12.563168,-17.73719 21.75755,-22.22912 4.441958,-2.17012 11.428128,-4.29693 15.477388,-4.71178 0.92878,-0.0952 1.54473,-0.26199 1.36878,-0.37073 -0.52653,-0.3254 5.57107,-0.59421 8.75741,-0.38606 1.6302,0.1065 2.82206,0.28134 2.64861,0.38855 -0.17346,0.1072 0.37785,0.27485 1.22514,0.37254 2.0154,0.23237 5.90949,1.29557 8.28321,2.26156 3.08024,1.25351 4.75238,2.38852 7.43468,5.04651 2.10669,2.0876 2.72252,2.89466 3.63414,4.7625 0.60367,1.23693 1.39086,3.26099 1.74928,4.49792 0.35842,1.23693 0.67171,2.07036 0.69619,1.85208 0.14738,-1.31428 0.48438,2.28615 0.49527,5.29167 0.0148,4.07931 -0.21051,6.56793 -0.54662,6.03784 -0.15824,-0.24956 -0.22264,-0.18443 -0.22554,0.22813 -0.007,0.99278 -1.53702,6.57542 -2.54227,9.27588 -5.22941,14.04797 -15.87094,24.28301 -30.00553,28.85933 -3.45933,1.12002 -8.05667,2.16262 -9.56655,2.16954 -0.57324,0.003 -0.76238,0.0815 -0.53748,0.22411 0.76093,0.48256 -7.035759,0.70259 -10.665758,0.301 z M 111.09383,227.5731 c 3.18692,-0.99393 6.43893,-3.49211 8.73564,-6.71067 1.66533,-2.33374 3.71287,-6.74022 4.55244,-9.79724 0.64607,-2.35244 0.72709,-3.10059 0.73075,-6.74687 0.004,-4.09333 0.003,-4.10403 -0.8308,-5.68854 -1.63177,-3.10272 -3.80511,-4.35913 -7.88298,-4.55715 -3.23624,-0.15716 -5.5089,0.31234 -8.09819,1.67296 -5.57738,2.93084 -10.123949,10.11559 -11.533498,18.22591 -0.559522,3.21937 -0.39207,7.47592 0.360519,9.16462 1.182269,2.65286 3.798709,4.61257 6.690079,5.01088 2.02802,0.27937 5.39052,0.0142 7.27604,-0.5739 z"
         id="path4062"
         inkscape:connector-curvature="0" />
    </clipPath>
    <linearGradient
       x1="0"
       y1="0"
       x2="1"
       y2="0"
       gradientUnits="userSpaceOnUse"
       gradientTransform="matrix(-12.669779,0,0,-12.669784,188.54482,222.16463)"
       spreadMethod="pad"
       id="linearGradient160">
      <stop
         style="stop-opacity:1;stop-color:#ffd633"
         offset="0"
         id="stop162" />
      <stop
         style="stop-opacity:1;stop-color:#f05737"
         offset="1"
         id="stop164" />
    </linearGradient>
    <linearGradient
       x1="0"
       y1="0"
       x2="1"
       y2="0"
       gradientUnits="userSpaceOnUse"
       gradientTransform="matrix(17.176277,0,0,17.176277,96.181595,215.58689)"
       spreadMethod="pad"
       id="linearGradient180">
      <stop
         style="stop-opacity:1;stop-color:#56ba67"
         offset="0"
         id="stop182" />
      <stop
         style="stop-opacity:1;stop-color:#ffd633"
         offset="1"
         id="stop184" />
    </linearGradient>
    <linearGradient
       x1="0"
       y1="0"
       x2="1"
       y2="0"
       gradientUnits="userSpaceOnUse"
       gradientTransform="matrix(11.702451,0,0,11.702451,101.58679,235.06083)"
       spreadMethod="pad"
       id="linearGradient200">
      <stop
         style="stop-opacity:1;stop-color:#56ba67"
         offset="0"
         id="stop202" />
      <stop
         style="stop-opacity:1;stop-color:#ffd633"
         offset="1"
         id="stop204" />
    </linearGradient>
    <linearGradient
       x1="0"
       y1="0"
       x2="1"
       y2="0"
       gradientUnits="userSpaceOnUse"
       gradientTransform="matrix(35.383789,0,0,-35.383789,262.04004,955.25195)"
       spreadMethod="pad"
       id="linearGradient200-9">
      <stop
         style="stop-opacity:1;stop-color:#56ba67"
         offset="0"
         id="stop202-7" />
      <stop
         style="stop-opacity:1;stop-color:#ffd633"
         offset="1"
         id="stop204-0" />
    </linearGradient>
    <linearGradient
       x1="0"
       y1="0"
       x2="1"
       y2="0"
       gradientUnits="userSpaceOnUse"
       gradientTransform="matrix(51.93457,0,0,-51.93457,245.69678,1014.1338)"
       spreadMethod="pad"
       id="linearGradient180-1">
      <stop
         style="stop-opacity:1;stop-color:#56ba67"
         offset="0"
         id="stop182-7" />
      <stop
         style="stop-opacity:1;stop-color:#ffd633"
         offset="1"
         id="stop184-4" />
    </linearGradient>
    <linearGradient
       x1="0"
       y1="0"
       x2="1"
       y2="0"
       gradientUnits="userSpaceOnUse"
       gradientTransform="matrix(-38.308624,0,0,38.308639,311.10547,1002.6782)"
       spreadMethod="pad"
       id="linearGradient160-0">
      <stop
         style="stop-opacity:1;stop-color:#ffd633"
         offset="0"
         id="stop162-8" />
      <stop
         style="stop-opacity:1;stop-color:#f05737"
         offset="1"
         id="stop164-5" />
    </linearGradient>
    <clipPath
       clipPathUnits="userSpaceOnUse"
       id="clipPath48">
      <path
         inkscape:connector-curvature="0"
         d="M 0,1224 H 792 V 0 H 0 Z"
         id="path50" />
    </clipPath>
    <clipPath
       clipPathUnits="userSpaceOnUse"
       id="clipPath16">
      <path
         inkscape:connector-curvature="0"
         d="M 0,1224 H 792 V 0 H 0 Z"
         id="path18" />
    </clipPath>
    <linearGradient
       x1="0"
       y1="0"
       x2="1"
       y2="0"
       gradientUnits="userSpaceOnUse"
       gradientTransform="matrix(0,-42.889662,42.889662,0,95.771996,286.33754)"
       spreadMethod="pad"
       id="linearGradient36">
      <stop
         style="stop-opacity:1;stop-color:#f37636"
         offset="0"
         id="stop38" />
      <stop
         style="stop-opacity:1;stop-color:#893031"
         offset="1"
         id="stop40" />
    </linearGradient>
    <linearGradient
       x1="0"
       y1="0"
       x2="1"
       y2="0"
       gradientUnits="userSpaceOnUse"
       gradientTransform="matrix(0,-42.889662,42.889662,0,114.1489,249.46404)"
       spreadMethod="pad"
       id="linearGradient36-1">
      <stop
         style="stop-opacity:1;stop-color:#f37636"
         offset="0"
         id="stop38-9" />
      <stop
         style="stop-opacity:1;stop-color:#893031"
         offset="1"
         id="stop40-8" />
    </linearGradient>
    <linearGradient
       x1="0"
       y1="0"
       x2="1"
       y2="0"
       gradientUnits="userSpaceOnUse"
       gradientTransform="matrix(0,-252.13476,225.51004,0,-161.88749,240.31297)"
       spreadMethod="pad"
       id="linearGradient36-3">
      <stop
         style="stop-opacity:1;stop-color:#f37636"
         offset="0"
         id="stop38-4" />
      <stop
         style="stop-opacity:1;stop-color:#893031"
         offset="1"
         id="stop40-89" />
    </linearGradient>
    <clipPath
       clipPathUnits="userSpaceOnUse"
       id="clipPath4858">
      <path
         inkscape:connector-curvature="0"
         d="m 20.987407,145.46245 c 0,2.434 1.204594,2.97474 1.450686,2.97474 v 0 c 7.993081,-8.11403 18.652098,-18.64685 40.448592,-18.64685 v 0 c 27.369818,0 35.849023,8.64283 34.155322,16.48741 v 0 l -16.712364,79.46058 c -2.178248,9.98876 -0.489106,11.61933 4.11507,9.72766 v 0 c 5.091753,-2.1594 21.316477,-9.18359 23.017757,-9.18359 v 0 c 1.69071,0 1.92918,-4.60197 1.92918,-6.48853 v 0 l 0.2448,-71.63129 c 0,-9.18187 1.45065,-11.89223 4.12113,-11.89223 v 0 c 3.14438,0 12.83727,6.49195 27.12221,6.49195 v 0 c 23.49625,0 36.09355,-15.95183 36.09355,-24.3252 v 0 c 0,-2.16284 -1.21369,-3.24592 -3.87048,-3.24592 v 0 c -5.82241,0 -11.3866,4.87144 -29.79569,4.87144 v 0 c -17.20449,0 -46.023434,-12.43632 -73.634748,-12.43632 v 0 c -30.034195,0 -48.684779,29.18648 -48.684779,37.83615 m 198.417797,5.09949 v 0 m -105.23533,85.36948 v 0"
         style="display:inline;fill:url(#linearGradient4862);stroke:none;stroke-width:1.60460961"
         id="path4860"
         sodipodi:nodetypes="cccccccccccccccccccccccccccccccc" />
    </clipPath>
    <linearGradient
       inkscape:collect="always"
       xlink:href="#linearGradient36-3-0"
       id="linearGradient4862"
       gradientUnits="userSpaceOnUse"
       gradientTransform="matrix(0,-830.78983,744.53111,0,-145.30431,746.05876)"
       x1="0"
       y1="0"
       x2="1"
       y2="0"
       spreadMethod="pad" />
    <linearGradient
       x1="0"
       y1="0"
       x2="1"
       y2="0"
       gradientUnits="userSpaceOnUse"
       gradientTransform="matrix(0,-830.78982,744.5311,0,-65.981828,1152.8353)"
       spreadMethod="pad"
       id="linearGradient36-3-0">
      <stop
         style="stop-opacity:1;stop-color:#f37636"
         offset="0"
         id="stop38-4-4" />
      <stop
         style="stop-opacity:1;stop-color:#893031"
         offset="1"
         id="stop40-89-2" />
    </linearGradient>
  </defs>
  <sodipodi:namedview
     id="base"
     pagecolor="#ffffff"
     bordercolor="#666666"
     borderopacity="1.0"
     inkscape:pageopacity="0.0"
     inkscape:pageshadow="2"
     inkscape:zoom="0.31356958"
     inkscape:cx="351.12018"
     inkscape:cy="674.09438"
     inkscape:document-units="mm"
     inkscape:current-layer="layer7"
     showgrid="false"
     inkscape:window-width="1366"
     inkscape:window-height="768"
     inkscape:window-x="247"
     inkscape:window-y="1080"
     inkscape:window-maximized="1"
     width="298mm" />
  <metadata
     id="metadata4083">
    <rdf:RDF>
      <cc:Work
         rdf:about="">
        <dc:format>image/svg+xml</dc:format>
        <dc:type
           rdf:resource="http://purl.org/dc/dcmitype/StillImage" />
        <dc:title></dc:title>
      </cc:Work>
    </rdf:RDF>
  </metadata>
  <g
     inkscape:groupmode="layer"
     id="layer5"
     inkscape:label="lettre O"
     style="display:inline"
     transform="translate(0,-100)">
    <path
       sodipodi:nodetypes="cccscccccccccccc"
       style="fill:#0053ee;fill-opacity:1;stroke-width:0.26458332"
       d="m 259.13368,263.77723 c -8.54894,-3.36598 -11.91952,-8.03372 -14.49229,-14.7119 -2.52931,-7.43714 -1.00287,-16.4615 1.00669,-23.9008 2.88077,-9.97805 9.63225,-19.48489 18.01028,-25.36049 4.04756,-2.8386 10.61476,-6.03262 14.54919,-7.07611 0.90243,-0.2394 1.48469,-0.50054 1.29389,-0.5804 7.16719,-2.17704 14.21097,-2.15363 21.06928,-0.66925 5.1853,1.54212 9.68028,4.01229 12.46764,7.95571 0.78982,1.12721 1.8841,3.00312 2.4317,4.16871 3.69426,6.83546 2.98254,14.91236 1.45376,22.73829 -2.96628,14.69331 -11.87476,27.51187 -25.1189,34.24403 -9.99722,4.83841 -22.39108,6.18338 -32.67124,3.19221 z m 32.02479,-27.78452 c 4.20197,-9.45018 5.8637,-27.23746 -7.58124,-25.92271 -10.93831,1.23144 -16.02318,14.26323 -16.27532,22.72623 -0.62753,17.2402 18.00772,14.59592 23.85656,3.19648 z"
       id="path4167"
       inkscape:connector-curvature="0" />
  </g>
  <g
     inkscape:groupmode="layer"
     id="layer6"
     inkscape:label="lettre R"
     style="display:inline"
     transform="translate(0,-100)">
    <path
       style="display:inline;fill:#0053ee;fill-opacity:1;stroke-width:0.26458338"
       d="m 181.52779,264.61922 c 0.071,-0.23608 0.34002,-1.89532 0.32426,-2.13759 3.60224,-15.50585 -1.56731,7.39736 3.3785,-14.238 3.96939,-17.08625 4.25207,-20.43451 5.97924,-24.91433 6.04337,-15.67483 18.022,-26.11598 35.25207,-30.72735 4.43987,-1.24836 9.10314,-2.05493 13.39645,-2.07062 6.04257,-0.23478 5.4874,0.36171 3.83485,3.48179 -0.78609,1.28889 -3.43989,7.45618 -4.39578,9.67242 -2.64308,6.14551 -4.04838,9.75394 -4.21673,10.02412 -0.28884,0.46351 -1.28082,2.09875 -2.61509,1.54261 -2.84739,-1.18679 -7.66791,-0.90312 -10.86446,0.63934 -4.20969,2.03134 -7.7283,6.08915 -9.70169,11.18838 -0.90479,2.338 -8.02483,37.00049 -7.7288,37.62845 0.16764,0.3556 -1.98848,0.10072 -10.80748,0.1452 -10.00914,0.0504 -11.95191,0.15319 -11.83533,-0.23423 z"
       id="path4078"
       inkscape:connector-curvature="0"
       sodipodi:nodetypes="ccccccccccsccscc" />
  </g>
  <g
     inkscape:label="lettre Y"
     inkscape:groupmode="layer"
     id="layer1"
     style="display:inline"
     transform="translate(0,-100)">
    <path
       sodipodi:nodetypes="cccccssssccsccczzcsccc"
       inkscape:connector-curvature="0"
       id="path3991"
       d="m 97.414695,289.48337 c -1.968864,-1.57741 1.181875,-4.1794 1.181875,-4.1794 3.25132,-3.87295 4.15793,-4.50283 6.94161,-7.28225 0.15327,-0.0184 2.75197,-4.15401 5.06294,-2.4668 7.29355,5.6225 16.60934,0.91575 18.45241,-1.7391 2.52593,-4.40514 2.07161,-6.51167 1.84476,-9.13474 -0.0563,-0.65079 0.0441,-3.75695 -7.15914,-31.55177 -2.27383,-8.77395 -4.54817,-16.84792 -6.35473,-23.54015 -2.04932,-7.59147 -2.77638,-10.99449 -3.9298,-14.7044 -1.50164,-4.82995 4.76848,-3.98114 4.76848,-3.98114 9.80128,-0.0278 7.55895,-0.15619 12.79458,-0.0665 3.17898,-0.13599 5.31314,-0.12508 5.79551,2.79384 0.61413,3.7163 10.69677,41.49934 11.04466,41.77275 0.19659,0.15449 0.38751,0.14275 0.51433,-0.0317 0.58046,-0.79822 17.51861,-39.57091 18.1946,-42.27285 0.60646,-1.7467 2.25909,-2.19876 5.2803,-2.1473 3.0212,0.0515 7.27455,0.10551 11.428,0.18288 4.15345,0.0774 6.20528,0.6155 4.41807,4.06398 -3.36435,6.66293 -6.06629,13.72958 -16.29218,34.17622 -10.2259,20.44662 -19.38488,38.45241 -20.35329,40.01285 -8.11381,16.07872 -20.82722,22.47986 -28.49306,24.19952 -8.25108,1.1078 -19.65439,1.95344 -25.139925,-4.10396 z"
       style="display:inline;fill:#0053ee;fill-opacity:1;stroke-width:0.26458332" />
  </g>
  <g
     inkscape:groupmode="layer"
     id="layer9"
     inkscape:label="lettre T"
     style="display:inline"
     transform="translate(0,-100)">
    <path
       id="path4860-1"
       style="display:inline;fill:#0053ee;fill-opacity:1;stroke:none;stroke-width:1.60460961"
       d="m 55.617992,142.60569 c -30.034195,0 -48.6848835,29.18628 -48.6848835,37.83593 0,2.434 1.204457,2.97501 1.450557,2.97501 7.9930815,-8.11403 18.6521935,-18.64692 40.4486955,-18.64692 27.369812,0 35.848721,8.6428 34.15502,16.48737 l -16.712158,79.46078 c -2.178251,9.98876 -0.489182,11.61924 4.114994,9.72757 5.091752,-2.1594 21.316431,-9.18394 23.017713,-9.18394 1.690706,0 1.92908,-4.60193 1.92908,-6.48849 l 0.244946,-71.63128 c 0,-9.18187 1.450716,-11.89178 4.121195,-11.89178 3.144379,0 12.837449,6.49159 27.122379,6.49159 23.49626,0 36.0934,-15.95176 36.0934,-24.32513 0,-2.16283 -1.21377,-3.2458 -3.87056,-3.2458 -5.82241,0 -11.38651,4.87154 -29.7956,4.87154 -17.20448,0 -46.02347,-12.43645 -73.634778,-12.43645 z"
       inkscape:connector-curvature="0" />
  </g>
  <g
     inkscape:groupmode="layer"
     id="layer7"
     inkscape:label="hyppos"
     style="display:inline"
     transform="translate(0,-100)">
    <g
       id="g4693"
       transform="matrix(2.7268811,0,0,2.7919706,-14.446241,-444.61843)">
      <g
         id="g12"
         transform="matrix(0.33072917,0,0,-0.33072917,-55.106015,552.17595)">
        <g
           clip-path="url(#clipPath16)"
           id="g14">
          <g
             transform="translate(269.8936,960.8506)"
             id="g20" />
        </g>
      </g>
      <g
         id="g44"
         transform="matrix(0.33072917,0,0,-0.33072917,-55.106015,552.17595)">
        <g
           clip-path="url(#clipPath48)"
           id="g46">
          <g
             transform="translate(282.1318,978.7822)"
             id="g52">
            <path
               id="path54"
               style="fill:#373535;fill-opacity:1;fill-rule:nonzero;stroke:none"
               d="M 0,0 C 0.005,0.001 0.008,0.003 0.013,0.005 0.038,0.013 0.062,0.021 0.085,0.028 0.058,0.021 0.028,0.011 0,0"
               inkscape:connector-curvature="0" />
          </g>
          <g
             transform="translate(286.8213,950.7793)"
             id="g56">
            <path
               id="path58"
               style="fill:#ee3338;fill-opacity:1;fill-rule:nonzero;stroke:none"
               d="M 0,0 C 0.174,-0.037 0.349,-0.078 0.527,-0.113 0.349,-0.078 0.174,-0.037 0,0"
               inkscape:connector-curvature="0" />
          </g>
          <g
             transform="translate(284.2046,951.3779)"
             id="g60">
            <path
               id="path62"
               style="fill:#ee3338;fill-opacity:1;fill-rule:nonzero;stroke:none"
               d="M 0,0 C 0.264,-0.065 0.529,-0.128 0.8,-0.192 0.529,-0.128 0.264,-0.065 0,0"
               inkscape:connector-curvature="0" />
          </g>
          <g
             transform="translate(285.416,951.0918)"
             id="g64">
            <path
               id="path66"
               style="fill:#ee3338;fill-opacity:1;fill-rule:nonzero;stroke:none"
               d="M 0,0 C 0.239,-0.057 0.479,-0.109 0.723,-0.164 0.479,-0.109 0.239,-0.057 0,0"
               inkscape:connector-curvature="0" />
          </g>
          <g
             transform="translate(285.0044,951.1855)"
             id="g68">
            <path
               id="path70"
               style="fill:#00b0f0;fill-opacity:1;fill-rule:nonzero;stroke:none"
               d="M 0,0 C 0.136,-0.031 0.274,-0.062 0.412,-0.094 0.274,-0.062 0.136,-0.031 0,0"
               inkscape:connector-curvature="0" />
          </g>
          <g
             transform="translate(287.3486,950.666)"
             id="g72">
            <path
               id="path74"
               style="fill:#00b0f0;fill-opacity:1;fill-rule:nonzero;stroke:none"
               d="M 0,0 C 0.424,-0.09 0.856,-0.176 1.299,-0.265 0.856,-0.176 0.424,-0.09 0,0"
               inkscape:connector-curvature="0" />
          </g>
          <g
             transform="translate(286.1387,950.9277)"
             id="g76">
            <path
               id="path78"
               style="fill:#00b0f0;fill-opacity:1;fill-rule:nonzero;stroke:none"
               d="M 0,0 C 0.224,-0.049 0.455,-0.1 0.683,-0.148 0.455,-0.1 0.226,-0.049 0,0"
               inkscape:connector-curvature="0" />
          </g>
          <g
             transform="translate(267.5347,960.1807)"
             id="g80">
            <path
               id="path82"
               style="fill:#ee3338;fill-opacity:1;fill-rule:nonzero;stroke:none"
               d="M 0,0 C 0.075,-0.183 0.166,-0.369 0.276,-0.56 0.166,-0.369 0.075,-0.183 0,0"
               inkscape:connector-curvature="0" />
          </g>
          <g
             transform="translate(269.4067,957.709)"
             id="g84">
            <path
               id="path86"
               style="fill:#00b0f0;fill-opacity:1;fill-rule:nonzero;stroke:none"
               d="M 0,0 C 0.011,-0.01 0.02,-0.019 0.028,-0.025 0.02,-0.019 0.011,-0.01 0,0"
               inkscape:connector-curvature="0" />
          </g>
          <g
             transform="translate(272.4341,955.6035)"
             id="g88">
            <path
               id="path90"
               style="fill:#00b0f0;fill-opacity:1;fill-rule:nonzero;stroke:none"
               d="M 0,0 C 0.012,-0.006 0.022,-0.01 0.033,-0.018 0.022,-0.01 0.012,-0.006 0,0"
               inkscape:connector-curvature="0" />
          </g>
          <g
             transform="translate(270.0044,957.2051)"
             id="g92">
            <path
               id="path94"
               style="fill:#00b0f0;fill-opacity:1;fill-rule:nonzero;stroke:none"
               d="M 0,0 C 0.02,-0.016 0.037,-0.032 0.055,-0.045 0.037,-0.032 0.02,-0.016 0,0"
               inkscape:connector-curvature="0" />
          </g>
          <g
             transform="translate(270.7046,956.6816)"
             id="g96">
            <path
               id="path98"
               style="fill:#00b0f0;fill-opacity:1;fill-rule:nonzero;stroke:none"
               d="M 0,0 C 0.024,-0.017 0.049,-0.033 0.072,-0.049 0.049,-0.033 0.024,-0.017 0,0"
               inkscape:connector-curvature="0" />
          </g>
          <g
             transform="translate(271.5127,956.1484)"
             id="g100">
            <path
               id="path102"
               style="fill:#00b0f0;fill-opacity:1;fill-rule:nonzero;stroke:none"
               d="M 0,0 C 0.025,-0.015 0.049,-0.031 0.072,-0.045 0.049,-0.031 0.025,-0.015 0,0"
               inkscape:connector-curvature="0" />
          </g>
          <g
             transform="translate(275.7388,954.0352)"
             id="g104">
            <path
               id="path106"
               style="fill:#00b0f0;fill-opacity:1;fill-rule:nonzero;stroke:none"
               d="M 0,0 C 0.057,-0.022 0.114,-0.045 0.17,-0.069 0.114,-0.045 0.057,-0.022 0,0"
               inkscape:connector-curvature="0" />
          </g>
          <g
             transform="translate(282.0435,951.9355)"
             id="g108">
            <path
               id="path110"
               style="fill:#00b0f0;fill-opacity:1;fill-rule:nonzero;stroke:none"
               d="M 0,0 C 0.069,-0.02 0.141,-0.035 0.211,-0.057 0.141,-0.035 0.069,-0.02 0,0"
               inkscape:connector-curvature="0" />
          </g>
          <g
             transform="translate(280.2749,952.4434)"
             id="g112">
            <path
               id="path114"
               style="fill:#00b0f0;fill-opacity:1;fill-rule:nonzero;stroke:none"
               d="M 0,0 C 0.08,-0.021 0.158,-0.045 0.238,-0.069 0.158,-0.045 0.08,-0.021 0,0"
               inkscape:connector-curvature="0" />
          </g>
          <g
             transform="translate(267.8154,959.6133)"
             id="g116">
            <path
               id="path118"
               style="fill:#00b0f0;fill-opacity:1;fill-rule:nonzero;stroke:none"
               d="M 0,0 C 0,0 -0.002,0.003 -0.004,0.008 V 0.003 C -0.002,0.003 0,0 0,0"
               inkscape:connector-curvature="0" />
          </g>
          <g
             transform="translate(286.1387,950.9277)"
             id="g120">
            <path
               id="path122"
               style="fill:#00b0f0;fill-opacity:1;fill-rule:nonzero;stroke:none"
               d="M 0,0 C -0.243,0.055 -0.483,0.107 -0.723,0.164 -0.85,0.193 -0.979,0.223 -1.104,0.252 -0.538,0.117 0.051,-0.014 0.653,-0.141 0.435,-0.096 0.215,-0.047 0,0"
               inkscape:connector-curvature="0" />
          </g>
          <g
             transform="translate(287.3643,950.6621)"
             id="g124">
            <path
               id="path126"
               style="fill:#00b0f0;fill-opacity:1;fill-rule:nonzero;stroke:none"
               d="M 0,0 C 0.42,-0.086 0.845,-0.173 1.284,-0.261 0.845,-0.176 0.42,-0.086 0,0"
               inkscape:connector-curvature="0" />
          </g>
          <g
             transform="translate(268.3652,963.7109)"
             id="g128">
            <path
               id="path130"
               style="fill:#00b0f0;fill-opacity:1;fill-rule:nonzero;stroke:none"
               d="M 0,0 2.297,9.789 0.273,1.17 Z"
               inkscape:connector-curvature="0" />
          </g>
          <g
             transform="translate(284.5132,951.3027)"
             id="g132">
            <path
               id="path134"
               style="fill:#00b0f0;fill-opacity:1;fill-rule:nonzero;stroke:none"
               d="M 0,0 C -0.104,0.026 -0.208,0.051 -0.309,0.075 -0.441,0.11 -0.569,0.142 -0.701,0.173 -0.62,0.152 -0.544,0.131 -0.461,0.11 -0.311,0.072 -0.153,0.036 0,0"
               inkscape:connector-curvature="0" />
          </g>
          <g
             transform="translate(274.5254,954.5586)"
             id="g136">
            <path
               id="path138"
               style="fill:#00b0f0;fill-opacity:1;fill-rule:nonzero;stroke:none"
               d="M 0,0 C 0.032,-0.017 0.061,-0.028 0.093,-0.045 0.061,-0.028 0.032,-0.017 0,0"
               inkscape:connector-curvature="0" />
          </g>
          <g
             transform="translate(277.1064,953.5039)"
             id="g140">
            <path
               id="path142"
               style="fill:#00b0f0;fill-opacity:1;fill-rule:nonzero;stroke:none"
               d="M 0,0 C 0.069,-0.025 0.14,-0.052 0.212,-0.078 0.14,-0.052 0.069,-0.025 0,0"
               inkscape:connector-curvature="0" />
          </g>
          <g
             transform="translate(278.6167,952.9707)"
             id="g144">
            <path
               id="path146"
               style="fill:#00b0f0;fill-opacity:1;fill-rule:nonzero;stroke:none"
               d="M 0,0 C 0.077,-0.025 0.158,-0.052 0.24,-0.076 0.158,-0.052 0.077,-0.025 0,0"
               inkscape:connector-curvature="0" />
          </g>
        </g>
      </g>
      <g
         id="g148"
         transform="matrix(0.33072917,0,0,-0.33072917,-55.106015,552.17595)">
        <g
           id="g150">
          <g
             id="g156">
            <g
               id="g158">
              <path
                 id="path166-0"
                 style="fill:url(#linearGradient160-0);stroke:none"
                 d="m 296.78,1072.324 c -1.049,-2.397 -4.605,-2.678 -6.427,-0.91 v 0 c -1.273,-3.305 -4.177,-3.034 -5.74,-2.602 v 0 c -0.528,-3.751 -3.992,-4.823 -5.09,-4.225 v 0 c 0.851,-3.42 -1.122,-5.125 -3.012,-6.114 v 0 c 2.053,-2.929 -0.285,-6.225 -0.687,-6.732 v 0 c 1.291,-0.908 2.034,-4.155 0.942,-6.035 v 0 c 1.65,-1.392 2.247,-3.495 1.392,-5.349 v 0 c -0.205,-0.445 -0.678,0.202 -0.79,0.375 v 0 c -1.981,3.047 -2.867,2.63 -4.215,0.183 v 0 c -1.513,-2.752 -2.048,-1.253 -2.257,0.245 v 0 c -0.134,0.96 -0.134,1.92 -0.172,1.762 v 0 c -1.375,-5.601 -2.369,-15.018 0.301,-18.155 v 0 c 0.412,-0.489 1.247,-0.903 1.762,-0.349 v 0 c 1.576,1.679 1.819,6.72 5.016,5.401 v 0 c -0.419,-0.985 0.38,-1.101 0.846,-2.114 v 0 c 0.156,-0.341 -1.08,-0.367 -1.4,-0.271 v 0 c -0.041,-0.238 -0.174,-0.674 -0.08,-0.468 v 0 c -0.117,-4.869 -6.776,-22.115 -8.864,-21.935 v 0 c 1.15,-1.79 -0.848,-4.763 -2.869,-4.47 v 0 c 1.195,-2.756 -0.881,-5.256 -2.371,-5.822 v 0 c 0.322,-0.896 0.361,-4.209 -2.606,-5.307 v 0 c 0.477,-0.799 0.727,-3.763 -1.946,-5.517 v 0 c 1.037,-1.475 0.295,-3.674 -0.947,-4.92 v 0 c 1.394,-0.83 1.789,-3.303 0.309,-4.768 v 0 c 1.72,-0.64 1.658,-3.423 0.912,-4.72 v 0 c 1.494,-0.562 2.467,-2.628 1.905,-4.127 v 0 c 1.007,-0.283 1.76,-0.868 2.272,-1.644 v 0 c 0.351,0.963 0.824,1.981 1.465,3.068 v 0 c 0.401,0.688 0.841,1.332 1.306,1.946 v 0 c -1.387,3.194 -0.569,7.039 0.58,10.114 v 0 c 1.391,3.708 4.727,7.035 5.563,7.925 v 0 c 0.804,0.854 2.03,2.506 3.496,4.621 v 0 l 0.363,1.545 c 0.164,-0.098 0.334,-0.195 0.498,-0.29 v 0 c 2.662,3.905 5.949,9 9.013,13.676 v 0 c 3.571,5.455 6.838,10.339 8.437,12.08 v 0 c -0.081,-1.054 0.617,-2.091 1.516,-2.582 v 0 c 0.747,2.822 2.852,6.377 6.1,5.94 v 0 c -0.544,2.021 -0.039,4.787 1.595,6.367 v 0 c 0.317,0.307 0.673,0.573 1.075,0.775 v 0 c -1.801,1.605 -3.353,5.133 -0.661,7.77 v 0 c -3.249,1.059 -4.213,4.911 -3.118,6.595 v 0 c -3.061,0.524 -5.187,2.716 -4.715,5.641 v 0 c -3.818,-0.044 -4.118,4.332 -3.76,5.284 v 0 c 0.161,0.43 0.678,0.987 1.274,0.919 v 0 c 0.867,-0.169 1.733,-1.578 1.378,-2.531 v 0 c 5.271,-0.42 12.525,-5.15 16.507,-8.189 v 0 c 0.494,-0.34 0.592,-1.288 0.967,-1.911 v 0 c 0.155,-0.268 0.784,-0.523 1.088,-0.408 v 0 c 1.924,0.729 3.954,3.173 4.116,3.605 v 0 c 0.065,0.18 -1.213,1.462 -1.512,1.287 v 0 c -0.28,-0.162 -0.782,-0.405 -1.071,-0.374 v 0 c -0.893,0.102 -3.008,1.553 -4.398,2.755 v 0 c -1.677,1.457 -0.412,2.767 -0.277,2.716 v 0 c -1.174,0.802 -1.941,3.528 -1.871,5.222 v 0 c 0.085,2.168 1.987,4.275 3.896,4.62 v 0 c -0.905,0.546 -1.42,0.764 -1.993,1.235 v 0 c -1.57,-0.806 -2.372,-2.68 -2.862,-3.918 v 0 c -0.617,4.909 -2.135,9.356 -5.297,13.277 v 0 c 0.459,-4.263 -4.512,-1.957 -4.882,-0.192 m 6.205,-15.891 c 0,0.904 0.733,1.638 1.636,1.638 v 0 c 0.906,0 1.638,-0.734 1.638,-1.638 v 0 c 0,-0.903 -0.732,-1.637 -1.638,-1.637 v 0 c -0.903,0 -1.636,0.734 -1.636,1.637 m -25.816,-28.939 c -0.013,-0.024 0.022,-0.044 0.08,-0.06 v 0 c 0.015,0.083 0.018,0.142 -0.004,0.142 v 0 c -0.014,0 -0.038,-0.024 -0.076,-0.082 m -9.549,-64.761 c -0.37,-0.521 -0.542,-1.429 -0.085,-2.553 v 0 l 0.831,3.531 c -0.251,-0.321 -0.5,-0.64 -0.746,-0.978 m 21.182,-12.177 c 0.024,-0.106 0.082,-0.198 0.146,-0.285 v 0 c 0.297,-0.133 0.568,-0.271 0.815,-0.414 v 0 c 0.195,-0.008 0.383,0.033 0.52,0.155 v 0 c 0.149,-0.924 1.113,-1.235 1.602,-1.135 v 0 c 0.036,-0.168 0.237,-0.525 0.578,-0.761 v 0 c 1.486,3.07 -0.446,5.964 -3.64,8.426 v 0 z m -19.506,-5.421 c -1.982,-2.251 -1.329,-4.605 -1.416,-5.284 v 0 c -0.077,-0.571 -0.142,-0.861 -0.445,-1.083 v 0 c 0.807,-0.431 1.51,-1.377 1.298,-2.477 v 0 c 0.812,-0.061 1.609,-0.9 1.613,-1.598 v 0 c 1.177,0.109 1.987,-0.623 2.295,-1.195 v 0 c 0.848,0.229 1.713,0.045 2.384,-0.657 v 0 c 0.54,0.604 1.753,0.604 2.414,0.007 v 0 c 0.39,0.656 1.654,1.314 2.412,0.629 v 0 c 0.271,1.044 1.518,1.41 2.273,0.926 v 0 c 0.236,0.881 1.044,1.736 2.003,1.567 v 0 c 0.079,1.686 1.51,2.233 2.004,2.185 v 0 c -0.303,1.676 1.233,2.406 1.73,2.451 v 0 c -0.144,0.846 0.441,2.411 2.029,2.456 v 0 c -0.2,0.264 -0.26,0.593 -0.23,0.916 v 0 c 0.253,0.387 0.504,0.813 0.748,1.285 v 0 c 0.07,0.045 0.143,0.084 0.218,0.118 v 0 c -0.614,0.158 -1.23,0.324 -1.844,0.487 v 0 c -0.179,-0.605 -7.764,-5.769 -9.09,-7.274 v 0 c -1.786,-2.031 -4.745,-4.097 -8.252,-0.95 v 0 c -1.644,1.472 -1.591,4.35 -0.352,5.759 v 0 c 1.571,1.779 3.862,1.652 5.028,0.747 v 0 c 0.79,-0.606 1.34,-1.969 0.438,-2.99 v 0 c -1.127,-1.289 -2.049,-1.077 -3.08,-0.866 v 0 c -0.448,0.089 -0.577,-0.47 -0.165,-0.769 v 0 c 1.626,-1.168 3.822,-0.749 4.766,0.324 v 0 c 0.752,0.854 2.215,3.351 -0.595,5.876 v 0 c -1.099,0.986 -2.419,1.437 -3.726,1.437 v 0 c -1.67,0 -3.319,-0.735 -4.458,-2.027"
                 inkscape:connector-curvature="0" />
            </g>
          </g>
        </g>
      </g>
      <g
         id="g168"
         transform="matrix(0.33072917,0,0,-0.33072917,-55.106015,552.17595)">
        <g
           id="g170">
          <g
             id="g176">
            <g
               id="g178">
              <path
                 id="path186-3"
                 style="fill:url(#linearGradient180-1);stroke:none"
                 d="m 254.362,1040.08 c -0.42,1.064 -1.108,2.672 -2.46,3.366 v 0 c -0.492,-0.406 -0.932,-0.592 -1.711,-1.061 v 0 c 1.644,-0.297 3.278,-2.107 3.351,-3.968 v 0 c 0.056,-1.457 -0.601,-3.798 -1.612,-4.487 v 0 c 0.069,0.024 0.445,-0.328 0.498,-0.863 v 0 c 0.038,-0.411 -0.109,-0.928 -0.735,-1.469 v 0 c -1.192,-1.033 -3.009,-2.282 -3.777,-2.371 v 0 c -0.248,-0.026 -0.68,0.185 -0.92,0.323 v 0 c -0.257,0.15 -1.355,-0.949 -1.297,-1.106 v 0 c 0.138,-0.37 1.879,-2.472 3.535,-3.097 v 0 c 0.261,-0.099 0.796,0.121 0.935,0.35 v 0 c 0.32,0.536 0.405,1.351 0.828,1.641 v 0 c 2.142,1.636 5.381,3.837 8.618,5.345 v 0 c 1.936,0.902 3.869,1.556 5.565,1.691 v 0 c -0.307,0.819 0.438,2.031 1.184,2.176 v 0 c 0.513,0.057 0.958,-0.42 1.093,-0.79 v 0 c 0.219,-0.585 0.145,-2.667 -1.107,-3.795 v 0 c -0.502,-0.452 -1.186,-0.756 -2.123,-0.744 v 0 c 0.405,-2.513 -1.42,-4.397 -4.051,-4.847 v 0 c 0.94,-1.446 0.113,-4.757 -2.681,-5.664 v 0 c 2.314,-2.266 0.983,-5.299 -0.568,-6.678 v 0 c 0.549,-0.272 0.999,-0.674 1.363,-1.154 v 0 c 1.053,-1.39 1.349,-3.441 0.934,-4.983 v 0 c 2.79,0.378 4.599,-2.677 5.242,-5.103 v 0 c 1.754,-5.006 5.971,-8.458 10.456,-11.146 v 0 c 5.806,-3.48 12.06,-5.678 14.001,-8.299 v 0 c 0.108,-0.142 0.204,-0.287 0.283,-0.434 v 0 c 0.285,-0.522 0.152,-0.968 -0.289,-1.38 v 0 l -0.018,-4.754 c 5.09,1.998 8.732,4.016 8.732,9.682 v 0 c 0,5.175 -4.125,9.759 -8.601,13.731 v 0 c -4.235,3.757 -8.781,6.965 -10.449,9.597 v 0 c -1.902,0.137 -4.024,2.76 -2.03,4.42 v 0 c 3.172,2.637 5.673,-2.449 7.17,-4.047 v 0 c 0.443,-0.473 1.158,-0.117 1.512,0.299 v 0 c 2.055,2.411 3.581,14.274 -0.892,18.375 v 0 c -0.533,0.489 -1.15,0.876 -1.863,1.115 v 0 c -0.326,0.109 -0.946,-0.115 -1.169,-0.498 v 0 c -0.013,-0.02 -0.028,-0.038 -0.038,-0.059 v 0 c -0.994,-2.184 0.216,-2.594 -1.485,-5.215 v 0 c -0.096,-0.147 -0.503,-0.704 -0.68,-0.321 v 0 c -0.733,1.592 -0.221,3.398 1.197,4.595 v 0 c -0.217,0.376 -0.347,0.816 -0.409,1.279 v 0 c -0.202,1.528 0.368,3.307 1.219,3.905 v 0 c -0.346,0.436 -2.353,3.268 -0.593,5.786 v 0 c -1.623,0.848 -3.317,2.312 -2.586,5.252 v 0 c -0.941,-0.515 -3.92,0.407 -4.372,3.628 v 0 c -1.343,-0.368 -3.839,-0.601 -4.933,2.236 v 0 c -1.566,-1.517 -4.619,-1.279 -5.523,0.783 v 0 c -0.317,-1.517 -4.589,-3.498 -4.193,0.166 v 0 c -2.715,-3.371 -4.02,-7.188 -4.551,-11.408 m 0.275,-2.461 c 0,0.862 0.7,1.562 1.563,1.562 v 0 c 0.861,0 1.564,-0.7 1.564,-1.562 v 0 c 0,-0.864 -0.703,-1.565 -1.564,-1.565 v 0 c -0.863,0 -1.563,0.701 -1.563,1.565"
                 inkscape:connector-curvature="0" />
            </g>
          </g>
        </g>
      </g>
      <g
         id="g188"
         transform="matrix(0.33072917,0,0,-0.33072917,-55.106015,552.17595)">
        <g
           id="g190">
          <g
             id="g196">
            <g
               id="g198">
              <path
                 id="path206-8"
                 style="fill:url(#linearGradient200-9);stroke:none"
                 d="m 265.369,968.527 c -0.444,-0.59 -0.863,-1.203 -1.249,-1.86 v 0 c -0.61,-1.038 -1.062,-2.013 -1.397,-2.931 v 0 c -1.734,-4.747 0.009,-7.923 3.261,-10.172 v 0 c 5.676,-3.934 15.909,-5.067 20.063,-6.957 v 0 c -0.001,-0.004 -0.001,-0.013 -0.003,-0.019 v 0 c 0.035,-0.01 0.072,-0.018 0.108,-0.03 v 0 c 0.035,-0.015 0.072,-0.031 0.107,-0.05 v 0 l 0.03,0.018 c 0.836,-0.226 1.664,-0.439 2.493,-0.658 v 0 c 0.614,-0.163 1.23,-0.329 1.844,-0.487 v 0 c 0.09,-0.026 0.178,-0.049 0.271,-0.073 v 0 c 0.366,-0.094 1.802,-0.412 2.788,-1.154 v 0 c 1.332,-1.003 2.769,-2.687 1.182,-4.793 v 0 c -0.743,-0.988 -2.44,-1.014 -3.362,-0.318 v 0 c -1.167,0.881 -1.266,2.22 -0.821,2.919 v 0 c 0.298,0.471 1.056,0.82 1.726,0.315 v 0 c 0.841,-0.636 0.788,-1.176 0.742,-1.78 v 0 c -0.018,-0.265 0.322,-0.329 0.468,-0.081 v 0 c 0.562,0.97 0.15,2.24 -0.552,2.77 v 0 c -0.56,0.422 -2.138,1.228 -3.413,-0.463 v 0 c -1.132,-1.499 -0.544,-3.619 0.966,-4.759 v 0 c 1.131,-0.855 2.183,-0.801 2.792,-0.747 v 0 c 0.185,0.016 0.329,0.032 0.423,0.024 v 0 c 0.344,-0.032 0.519,-0.066 0.671,-0.238 v 0 c 0.194,0.481 0.697,0.908 1.36,0.807 v 0 c -0.027,0.472 0.408,0.954 0.819,0.969 v 0 c -0.151,0.685 0.219,1.174 0.531,1.362 v 0 c -0.199,0.489 -0.157,0.998 0.207,1.406 v 0 c -0.398,0.299 -0.49,1.006 -0.186,1.406 v 0 c -0.419,0.213 -0.899,0.937 -0.552,1.393 v 0 c -0.637,0.137 -0.946,0.855 -0.72,1.308 v 0 c -0.532,0.12 -1.099,0.575 -1.071,1.137 v 0 c -0.999,0.014 -1.428,0.834 -1.437,1.126 v 0 c -0.411,-0.089 -0.739,0.021 -0.995,0.199 v 0 c -0.341,0.236 -0.542,0.593 -0.578,0.761 v 0 c -0.489,-0.1 -1.453,0.211 -1.602,1.135 v 0 c -0.137,-0.122 -0.325,-0.163 -0.52,-0.155 v 0 c -0.247,0.143 -0.518,0.281 -0.815,0.414 v 0 c -0.064,0.087 -0.122,0.179 -0.146,0.285 v 0 c 0,10e-4 -0.002,0.004 -0.004,0.004 v 0 c -0.049,-0.053 -0.101,-0.105 -0.15,-0.159 v 0 c -0.438,0.088 -0.863,0.175 -1.283,0.261 v 0 c -0.004,0.004 -0.012,0.004 -0.017,0.004 v 0 c -0.178,0.035 -0.353,0.076 -0.527,0.113 v 0 c -0.009,0.004 -0.02,0.004 -0.029,0.008 v 0 c -0.603,0.127 -1.191,0.258 -1.758,0.392 v 0 c -0.009,10e-4 -0.019,0.007 -0.029,0.007 v 0 c -0.168,0.04 -0.33,0.078 -0.492,0.117 v 0 c -0.153,0.036 -0.311,0.072 -0.46,0.11 v 0 c -0.084,0.02 -0.16,0.042 -0.241,0.062 v 0 c -0.533,0.135 -1.055,0.268 -1.558,0.404 v 0 c -0.07,0.021 -0.142,0.037 -0.21,0.056 v 0 c -0.53,0.147 -1.039,0.291 -1.531,0.439 v 0 c -0.08,0.024 -0.159,0.048 -0.238,0.069 v 0 c -0.492,0.15 -0.962,0.299 -1.418,0.452 v 0 c -0.082,0.024 -0.163,0.05 -0.24,0.075 v 0 c -0.45,0.153 -0.881,0.302 -1.298,0.456 v 0 c -0.072,0.026 -0.143,0.053 -0.213,0.078 v 0 c -0.415,0.153 -0.816,0.308 -1.198,0.462 v 0 c -0.055,0.024 -0.112,0.047 -0.17,0.069 v 0 c -0.387,0.16 -0.763,0.32 -1.12,0.479 v 0 c -0.033,0.016 -0.061,0.028 -0.093,0.045 v 0 c -0.757,0.342 -1.442,0.686 -2.058,1.027 v 0 c -0.011,0.008 -0.021,0.011 -0.033,0.018 v 0 c -0.3,0.165 -0.581,0.335 -0.849,0.499 v 0 c -0.023,0.014 -0.048,0.031 -0.072,0.045 v 0 c -0.259,0.162 -0.503,0.323 -0.736,0.485 v 0 c -0.023,0.016 -0.048,0.032 -0.072,0.049 v 0 c -0.227,0.157 -0.442,0.319 -0.646,0.478 v 0 c -0.018,0.012 -0.035,0.03 -0.055,0.045 v 0 c -0.202,0.158 -0.394,0.317 -0.569,0.479 v 0 c -0.008,0.006 -0.017,0.015 -0.028,0.025 v 0 c -0.741,0.668 -1.256,1.309 -1.591,1.904 v 0 l -0.003,0.003 c 0,0 -0.002,0.003 -0.002,0.005 v 0 c -0.11,0.19 -0.201,0.377 -0.276,0.559 v 0 c -0.457,1.124 -0.285,2.032 0.085,2.553 v 0 c 0.246,0.338 0.495,0.657 0.746,0.978 v 0 l 0.272,1.17 2.024,8.619 c -1.963,-1.349 -3.785,-2.976 -5.293,-4.973"
                 inkscape:connector-curvature="0" />
            </g>
          </g>
        </g>
      </g>
    </g>
  </g>
</svg>
